Format                                   : MPEG-4
Format profile                           : Base Media
Codec ID                                 : isom
File size                                : 54.9 MiB
Duration                                 : 24mn 18s
Overall bit rate mode                    : Variable
Overall bit rate                         : 316 Kbps
Encoded date                             : UTC 2012-08-22 05:43:41
Tagged date                              : UTC 2012-08-22 05:43:41

Video
ID                                       : 1
Format                                   : AVC
Format/Info                              : Advanced Video Codec
Format profile                           : High@L4.1
Format settings, CABAC                   : Yes
Format settings, ReFrames                : 6 frames
Codec ID                                 : avc1
Codec ID/Info                            : Advanced Video Coding
Duration                                 : 24mn 17s
Bit rate                                 : 281 Kbps
Maximum bit rate                         : 1 780 Kbps
Width                                    : 640 pixels
Height                                   : 480 pixels
Display aspect ratio                     : 4:3
Original display aspect ratio            : 4:3
Frame rate mode                          : Constant
Frame rate                               : 23.976 fps
Color space                              : YUV
Chroma subsampling                       : 4:2:0
Bit depth                                : 8 bits
Scan type                                : Progressive
Bits/(Pixel*Frame)                       : 0.038
Stream size                              : 48.8 MiB (89%)
Writing library                          : x264 core 125 r2200 999b753
Encoding settings                        : cabac=1 / ref=6 / deblock=1:1:1 / analyse=0x3:0x113 / me=hex / subme=10 / psy=1 / psy_rd=0.40:0.00 / mixed_ref=1 / me_range=16 / chroma_me=1 / trellis=2 / 8x8dct=1 / cqm=0 / deadzone=21,11 / fast_pskip=1 / chroma_qp_offset=-2 / threads=1 / lookahead_threads=1 / sliced_threads=0 / nr=0 / decimate=1 / interlaced=0 / bluray_compat=0 / constrained_intra=0 / bframes=5 / b_pyramid=2 / b_adapt=1 / b_bias=0 / direct=1 / weightb=1 / open_gop=0 / weightp=2 / keyint=240 / keyint_min=23 / scenecut=40 / intra_refresh=0 / rc_lookahead=40 / rc=2pass / mbtree=1 / bitrate=281 / ratetol=1.0 / qcomp=0.60 / qpmin=0 / qpmax=69 / qpstep=4 / cplxblur=20.0 / qblur=0.5 / ip_ratio=1.40 / aq=1:0.60
Encoded date                             : UTC 2012-08-22 05:43:41
Tagged date                              : UTC 2012-08-22 05:44:13

Audio
ID                                       : 2
Format                                   : AAC
Format/Info                              : Advanced Audio Codec
Format profile                           : HE-AAC / LC
Codec ID                                 : 40
Duration                                 : 24mn 18s
Bit rate mode                            : Variable
Bit rate                                 : 32.0 Kbps
Maximum bit rate                         : 50.3 Kbps
Channel(s)                               : 2 channels
Channel positions                        : Front: L R
Sampling rate                            : 44.1 KHz / 22.05 KHz
Compression mode                         : Lossy
Stream size                              : 5.57 MiB (10%)
Language                                 : English
Encoded date                             : UTC 2012-08-22 05:44:12
Tagged date                              : UTC 2012-08-22 05:44:13



Screenshots:
 
http://bayimg.com/iAbPPaAEh
 
http://bayimg.com/jAbPeaaeh
 
http://bayimg.com/JaBpFAaEH
 
http://bayimg.com/JAbpIaAeh




More to come... 

Enjoy...

seed for speed...